<?xml version="1.0" encoding="UTF-8" standalone="no"?>
<!-- Created with Inkscape (http://www.inkscape.org/) -->

<svg
   xmlns:dc="http://purl.org/dc/elements/1.1/"
   xmlns:cc="http://creativecommons.org/ns#"
   xmlns:rdf="http://www.w3.org/1999/02/22-rdf-syntax-ns#"
   xmlns:svg="http://www.w3.org/2000/svg"
   xmlns="http://www.w3.org/2000/svg"
   xmlns:sodipodi="http://sodipodi.sourceforge.net/DTD/sodipodi-0.dtd"
   xmlns:inkscape="http://www.inkscape.org/namespaces/inkscape"
   id="svg8550"
   version="1.1"
   inkscape:version="0.91 r13725"
   xml:space="preserve"
   width="748.30377"
   height="386.87"
   viewBox="0 0 748.30377 386.87"
   sodipodi:docname="nbislogo-text-blue.svg"><metadata
     id="metadata8556"><rdf:RDF><cc:Work
         rdf:about=""><dc:format>image/svg+xml</dc:format><dc:type
           rdf:resource="http://purl.org/dc/dcmitype/StillImage" /><dc:title></dc:title></cc:Work></rdf:RDF></metadata><defs
     id="defs8554" /><sodipodi:namedview
     pagecolor="#ffffff"
     bordercolor="#666666"
     borderopacity="1"
     objecttolerance="10"
     gridtolerance="10"
     guidetolerance="10"
     inkscape:pageopacity="0"
     inkscape:pageshadow="2"
     inkscape:window-width="699"
     inkscape:window-height="480"
     id="namedview8552"
     showgrid="false"
     fit-margin-top="0"
     fit-margin-left="0"
     fit-margin-right="0"
     fit-margin-bottom="0"
     showborder="false"
     inkscape:zoom="0.51316318"
     inkscape:cx="374.14999"
     inkscape:cy="193.4375"
     inkscape:window-x="0"
     inkscape:window-y="27"
     inkscape:window-maximized="0"
     inkscape:current-layer="g8558" /><g
     id="g8558"
     inkscape:groupmode="layer"
     inkscape:label="ink_ext_XXXXXX"
     transform="matrix(1.25,0,0,-1.25,0,386.87)"><g
       id="g8560"
       transform="scale(0.1,0.1)"><path
         d="m 3679.66,2926.58 0,0 c -8.5,16.79 -25.71,27.37 -44.53,27.37 l -40.67,0 c -20.5,0 -33.82,-21.58 -24.63,-39.9 l 68,-135.61 62.1,-105.64 c 48.75,-82.92 114.78,-154.38 193.6,-209.52 l 404.28,-282.83 c 54.97,-38.47 101.73,-87.5 137.54,-144.25 l 131.95,-212.04 19.32,170.82 -106.35,189.66 c -30.42,54.24 -73.23,100.52 -124.94,135.06 l -437.84,292.45 -42.4,38.66 c -68.58,62.52 -125.2,136.99 -167.1,219.78 l -28.33,55.99"
         style="fill:#255991;fill-opacity:1;fill-rule:nonzero;stroke:none"
         id="path8562"
         inkscape:connector-curvature="0" /><path
         d="m 3919.37,1341.76 0,0 -146.12,133.23 -87.76,214.94 3.2,82.4 -42.63,-147.27 22.98,-90.06 c 26.12,-102.38 89.78,-191.21 178.35,-248.83 l 382.56,-248.91 c 37.6,-24.46 81.5,-37.49 126.35,-37.49 l 15.75,0 c 39.75,0 53.74,52.71 19.22,72.43 l -471.9,269.56"
         style="fill:#255991;fill-opacity:1;fill-rule:nonzero;stroke:none"
         id="path8564"
         inkscape:connector-curvature="0" /><path
         d="m 4558.62,2665.1 0,0 1.68,-3.16 c 7.47,-14.05 9.03,-30.5 4.35,-45.71 l -16.56,-53.83 c -4.94,-16.06 -25.92,-19.91 -36.24,-6.64 l -218.71,281.19 c -23.31,29.97 -0.64,73.47 37.28,71.53 l 68.03,-3.5 c 20.85,-1.06 39.61,-13 49.4,-31.43 l 110.77,-208.45"
         style="fill:#255991;fill-opacity:1;fill-rule:nonzero;stroke:none"
         id="path8566"
         inkscape:connector-curvature="0" /><path
         d="m 4439.34,2810.51 0,0 c 11.55,-21.74 -5.85,-47.57 -30.34,-45.04 l -320.23,33.04 c -2.09,0.22 -4.2,0.22 -6.29,0 l -358.89,-36.76 c -12.93,-1.32 -25.3,5.63 -30.91,17.36 l -37.79,79.12 c -10.9,22.82 8.86,48.32 33.68,43.47 l 384.8,-75.25 c 3.07,-0.6 6.2,-0.73 9.3,-0.39 l 300.16,33.3 c 17.44,1.93 34.28,-6.97 42.51,-22.46 l 14,-26.39"
         style="fill:#ef8729;fill-opacity:1;fill-rule:nonzero;stroke:none"
         id="path8568"
         inkscape:connector-curvature="0" /><path
         d="m 4537.46,2598.81 0,0 c 2.41,-3.99 3.88,-8.47 4.31,-13.11 l 0,0 c 1.76,-19.31 -14.54,-35.42 -33.83,-33.42 l -266.35,27.64 c -1.9,0.2 -3.8,0.22 -5.7,0.06 l -339.86,-27.93 c -8.54,-0.7 -17,2.19 -23.32,7.99 l -29.97,27.47 c -21.68,19.88 -5.78,55.95 23.53,53.34 l 362.55,-32.22 c 3.2,-0.29 6.43,-0.07 9.57,0.65 l 223.16,50.91 c 20.36,4.65 41.4,-4.28 52.2,-22.15 l 23.71,-39.23"
         style="fill:#ef8729;fill-opacity:1;fill-rule:nonzero;stroke:none"
         id="path8570"
         inkscape:connector-curvature="0" /><path
         d="m 4124.82,2418.86 183.54,-30.63 c 5.22,-0.88 10.58,-0.39 15.56,1.42 l 75.3,27.32 c 24.37,8.85 48.08,-14.56 39.57,-39.04 l -1.47,-4.22 c -4.6,-13.21 -17.53,-21.66 -31.48,-20.57 l -82.99,6.54 c -4.3,0.33 -8.63,-0.24 -12.69,-1.68 l -97.48,-34.52 c -11.26,-3.99 -23.81,-1.1 -32.19,7.41 l -66.38,67.35 c -8.3,8.43 -0.96,22.56 10.71,20.62"
         style="fill:#ef8729;fill-opacity:1;fill-rule:nonzero;stroke:none"
         id="path8572"
         inkscape:connector-curvature="0" /><path
         d="m 3730.02,1483.5 0,0 c 4.82,-14.75 19.86,-23.6 35.1,-20.66 l 190.58,36.86 c 2.47,0.48 4.99,0.65 7.5,0.52 l 141.37,-7.62 c 12.17,-0.66 23.58,5.93 29.1,16.8 l 4.99,9.83 c 11.93,23.51 -9.28,50.16 -34.87,43.8 l -138.45,-34.43 c -3.91,-0.97 -7.98,-1.16 -11.96,-0.57 l -219.93,32.76 c -13.86,2.07 -25.04,-11.17 -20.69,-24.48 l 17.26,-52.81"
         style="fill:#ef8729;fill-opacity:1;fill-rule:nonzero;stroke:none"
         id="path8574"
         inkscape:connector-curvature="0" /><path
         d="m 4378.07,2174.84 -47.78,-23.21 c -4.32,-2.09 -9.07,-3.15 -13.87,-3.09 l -195.4,2.72 c -14.44,0.2 -27.08,-9.67 -30.39,-23.72 l -10.5,-44.64 c -5.56,-23.66 17.21,-44.13 40.14,-36.09 l 204.04,71.52 c 5.14,1.8 10.66,2.21 16,1.18 l 49.84,-9.59 c 26.47,-5.1 46.24,23.9 31.81,46.68 l -4.44,7.02 c -8.38,13.24 -25.36,18.06 -39.45,11.22"
         style="fill:#ef8729;fill-opacity:1;fill-rule:nonzero;stroke:none"
         id="path8576"
         inkscape:connector-curvature="0" /><path
         d="m 4540.82,1952.96 0,0 c 7.58,-20.52 -8.07,-42.17 -29.94,-41.41 l -243.68,8.46 c -2.34,0.08 -4.69,-0.11 -7,-0.56 l -397.17,-78.02 c -26.77,-5.26 -46.64,24.33 -31.63,47.12 l 52.32,79.45 c 6.35,9.65 17.58,14.93 29.07,13.66 l 346.31,-38.13 c 3.03,-0.34 6.09,-0.22 9.09,0.35 l 232.04,43.84 c 14.98,2.83 29.81,-5.57 35.09,-19.87 l 5.5,-14.89"
         style="fill:#ef8729;fill-opacity:1;fill-rule:nonzero;stroke:none"
         id="path8578"
         inkscape:connector-curvature="0" /><path
         d="m 4213.87,1138.81 0,0 c 25.85,-18.04 11.11,-58.65 -20.29,-55.9 l -211.15,15.12 c -2.5,-0.08 -4.99,-0.17 -7.49,-0.25 l -230.46,-32.45 c -25.79,-3.63 -44.15,24.41 -30.51,46.6 l 27.04,43.95 c 7.11,11.56 20.94,17.09 34.06,13.64 l 196.32,-51.76 c 4.95,-1.3 10.15,-1.35 15.13,-0.14 l 189.95,32.2 c 11.14,1.89 22.58,-0.67 31.84,-7.14 l 5.56,-3.87"
         style="fill:#ef8729;fill-opacity:1;fill-rule:nonzero;stroke:none"
         id="path8580"
         inkscape:connector-curvature="0" /><path
         d="m 4440.56,1804.81 -59.14,-118.27 c -5.74,-11.48 -18.01,-18.19 -30.77,-16.84 l -321.92,34.2 c -2.7,0.29 -5.43,0.21 -8.11,-0.21 l -313.48,-50.16 c -25.62,-4.1 -44.51,23.39 -31.48,45.83 l 18.55,31.96 c 5.86,10.1 16.93,16.02 28.58,15.27 l 298.04,-19.12 c 2.54,-0.16 5.1,-0.01 7.61,0.46 l 412.12,76.88 0,0"
         style="fill:#ef8729;fill-opacity:1;fill-rule:nonzero;stroke:none"
         id="path8582"
         inkscape:connector-curvature="0" /><path
         d="m 4500.86,2531.09 66.44,101.37 -3.64,-151.91 c -0.39,-16.23 -5.95,-31.9 -15.87,-44.74 l -68.95,-89.19 C 4428.43,2281.41 4368.66,2224 4301.47,2176.25 l -409.64,-291.11 c -25.55,-18.16 -48.98,-39.15 -69.84,-62.56 0,0 -141.16,-143.28 -175.93,-197.52 5.5,28.06 6.95,43.24 6.95,43.24 13.8,85.93 49.19,166.94 102.86,235.45 l 34.08,43.5 c 26.87,34.29 58.75,64.34 94.57,89.13 l 401.74,277.97 c 31.85,22.03 61.58,46.96 88.84,74.47 l 58.57,59.11 c 25.15,25.38 47.66,53.24 67.19,83.16 l 0,0"
         style="fill:#3f9dc7;fill-opacity:1;fill-rule:nonzero;stroke:none"
         id="path8584"
         inkscape:connector-curvature="0" /><path
         d="M 4232.2,1656.28 3962.54,1469.7 c -87.2,-60.34 -161.8,-137.1 -219.62,-225.99 l -152.05,-233.78 c -6.78,-10.418 0.7,-24.211 13.13,-24.211 l 71.02,0 c 17.54,0 33.78,9.222 42.77,24.281 l 36.72,61.52 c 65.2,109.23 152.41,203.68 256.09,277.37 l 277.97,197.53 c 76.01,54.02 147.05,114.7 212.27,181.34 l 45.54,46.51 c 21.37,21.84 33.85,50.85 35,81.39 l 5.24,139.32 -0.39,-0.66 c -25.77,-59.64 -52.79,-86.88 -79.33,-115.99 l -11.34,-11.37 c -8.53,-8.56 -17.56,-16.6 -27.04,-24.08 l -236.32,-186.6"
         style="fill:#3f9dc7;fill-opacity:1;fill-rule:nonzero;stroke:none"
         id="path8586"
         inkscape:connector-curvature="0" /><path
         d="m 1848.01,953.441 -561.38,0 -906.196,1575.859 -12.825,0 c 18.032,-278.34 27.075,-476.85 27.075,-595.58 l 0,-980.279 -394.684,0 0,2083.089 557.109,0 904.771,-1560.18 9.97,0 c -14.25,270.71 -21.37,462.11 -21.37,574.2 l 0,985.98 397.53,0 0,-2083.089"
         style="fill:#3f9dc7;fill-opacity:1;fill-rule:nonzero;stroke:none"
         id="path8588"
         inkscape:connector-curvature="0" /><path
         d="m 2510.56,1861.05 0,-542.86 287.82,0 c 121.58,0 211.35,23.27 269.29,69.82 57.93,46.53 86.92,117.76 86.92,213.72 0,172.87 -123.5,259.32 -370.46,259.32 l -273.57,0 z m 0,350.5 256.48,0 c 119.68,0 206.35,18.52 260.03,55.58 53.65,37.05 80.5,98.32 80.5,183.8 0,79.79 -29.21,137 -87.63,171.69 -58.42,34.67 -150.81,52.01 -277.13,52.01 l -232.25,0 0,-463.08 z m -441.69,824.98 648.29,0 c 295.41,0 509.85,-42.03 643.32,-126.09 133.44,-84.06 200.19,-217.78 200.19,-401.1 0,-124.45 -29.21,-226.54 -87.63,-306.33 -58.42,-79.79 -136.08,-127.77 -232.96,-143.91 l 0,-14.25 c 132.01,-29.46 227.26,-84.56 285.67,-165.28 58.42,-80.74 87.63,-188.08 87.63,-322.01 0,-189.99 -68.63,-338.18 -205.88,-444.54 -137.28,-106.4 -323.68,-159.579 -559.25,-159.579 l -779.38,0 0,2083.089"
         style="fill:#3f9dc7;fill-opacity:1;fill-rule:nonzero;stroke:none"
         id="path8590"
         inkscape:connector-curvature="0" /><path
         d="m 5975.64,1560.41 c 0,-188.08 -67.68,-336.25 -203.04,-444.54 -135.37,-108.29 -323.68,-162.429 -564.95,-162.429 -222.27,0 -418.89,41.789 -589.87,125.389 l 0,410.35 c 140.57,-62.7 259.54,-106.87 356.91,-132.52 97.36,-25.64 186.42,-38.46 267.17,-38.46 96.87,0 171.19,18.52 222.98,55.56 51.75,37.05 77.64,92.12 77.64,165.28 0,40.83 -11.39,77.17 -34.19,109 -22.79,31.81 -56.28,62.45 -100.45,91.91 -44.17,29.42 -134.17,76.44 -270,141.04 -127.3,59.85 -222.76,117.32 -286.39,172.42 -63.65,55.07 -114.48,119.19 -152.46,192.35 -38,73.13 -56.99,158.63 -56.99,256.46 0,184.27 62.45,329.14 187.36,434.58 124.9,105.43 297.54,158.16 517.93,158.16 108.28,0 211.59,-12.83 309.9,-38.48 98.31,-25.64 201.13,-61.76 308.48,-108.28 l -142.48,-343.38 c -111.15,45.59 -203.04,77.4 -275.71,95.46 -72.67,18.03 -144.16,27.06 -214.44,27.06 -83.6,0 -147.72,-19.47 -192.35,-58.41 -44.66,-38.96 -66.97,-89.76 -66.97,-152.46 0,-38.95 9.02,-72.91 27.07,-101.88 18.04,-28.97 46.78,-56.98 86.21,-84.06 39.41,-27.07 132.72,-75.76 279.98,-146.04 194.7,-93.1 328.17,-186.43 400.37,-279.98 72.18,-93.57 108.29,-208.27 108.29,-344.1"
         style="fill:#3f9dc7;fill-opacity:1;fill-rule:nonzero;stroke:none"
         id="path8592"
         inkscape:connector-curvature="0" /><path
         d="m 252.582,439.031 -42.902,0 -176.723,271.379 -1.7734,0 c 2.3555,-31.84 3.543,-61.039 3.543,-87.578 l 0,-183.801 -34.7266,0 0,323.367 42.4648,0 176.2812,-270.277 1.77,0 c -0.297,3.969 -0.961,16.77 -1.993,38.367 -1.035,21.602 -1.402,37.051 -1.109,46.34 l 0,185.57 35.168,0 0,-323.367"
         style="fill:#ef8729;fill-opacity:1;fill-rule:nonzero;stroke:none"
         id="path8594"
         inkscape:connector-curvature="0" /><path
         d="m 492.785,575.73 -37.601,100.18 c -4.868,12.692 -9.883,28.238 -15.039,46.68 -3.247,-14.16 -7.887,-29.719 -13.934,-46.68 l -38.047,-100.18 104.621,0 z m 51.981,-136.699 -40.258,102.848 -129.61,0 -39.812,-102.848 -38.047,0 127.844,324.699 31.629,0 127.179,-324.699 -38.925,0"
         style="fill:#ef8729;fill-opacity:1;fill-rule:nonzero;stroke:none"
         id="path8596"
         inkscape:connector-curvature="0" /><path
         d="m 727.68,439.031 -37.602,0 0,289.969 -102.402,0 0,33.398 242.41,0 0,-33.398 -102.406,0 0,-289.969"
         style="fill:#ef8729;fill-opacity:1;fill-rule:nonzero;stroke:none"
         id="path8598"
         inkscape:connector-curvature="0" /><path
         d="m 878.742,439.031 37.6016,0 0,323.367 -37.6016,0 0,-323.367 z"
         style="fill:#ef8729;fill-opacity:1;fill-rule:nonzero;stroke:none"
         id="path8600"
         inkscape:connector-curvature="0" /><path
         d="m 1028.04,601.16 c 0,-43.801 9.32,-77.012 27.98,-99.648 18.65,-22.633 45.74,-33.953 81.28,-33.953 35.83,0 62.88,11.281 81.17,33.839 18.29,22.563 27.43,55.813 27.43,99.762 0,43.488 -9.11,76.488 -27.32,98.981 -18.21,22.48 -45.16,33.73 -80.84,33.73 -35.83,0 -63.07,-11.32 -81.72,-33.961 -18.66,-22.629 -27.98,-55.558 -27.98,-98.75 z m 257.67,0 c 0,-51.762 -13.09,-92.461 -39.26,-122.101 -26.17,-29.629 -62.56,-44.45 -109.15,-44.45 -47.63,0 -84.38,14.563 -110.26,43.68 -25.88,29.121 -38.813,70.223 -38.813,123.313 0,52.636 12.973,93.449 38.923,122.429 25.95,28.957 62.82,43.457 110.59,43.457 46.45,0 82.72,-14.75 108.82,-44.238 26.1,-29.488 39.15,-70.199 39.15,-122.09"
         style="fill:#ef8729;fill-opacity:1;fill-rule:nonzero;stroke:none"
         id="path8602"
         inkscape:connector-curvature="0" /><path
         d="m 1610.4,439.031 -42.9,0 -176.72,271.379 -1.78,0 c 2.36,-31.84 3.55,-61.039 3.55,-87.578 l 0,-183.801 -34.73,0 0,323.367 42.46,0 176.28,-270.277 1.78,0 c -0.3,3.969 -0.97,16.77 -2,38.367 -1.03,21.602 -1.4,37.051 -1.1,46.34 l 0,185.57 35.16,0 0,-323.367"
         style="fill:#ef8729;fill-opacity:1;fill-rule:nonzero;stroke:none"
         id="path8604"
         inkscape:connector-curvature="0" /><path
         d="M 1850.61,575.73 1813,675.91 c -4.86,12.692 -9.88,28.238 -15.04,46.68 -3.24,-14.16 -7.88,-29.719 -13.93,-46.68 l -38.05,-100.18 104.63,0 z m 51.97,-136.699 -40.25,102.848 -129.61,0 -39.81,-102.848 -38.05,0 127.84,324.699 31.63,0 127.18,-324.699 -38.93,0"
         style="fill:#ef8729;fill-opacity:1;fill-rule:nonzero;stroke:none"
         id="path8606"
         inkscape:connector-curvature="0" /><path
         d="m 1985.97,439.031 0,323.367 37.6,0 0,-289.308 142.66,0 0,-34.059 -180.26,0"
         style="fill:#ef8729;fill-opacity:1;fill-rule:nonzero;stroke:none"
         id="path8608"
         inkscape:connector-curvature="0" /><path
         d="m 2376.35,592.082 0,-120.973 67.46,0 c 26.1,0 45.74,5.039 58.94,15.141 13.2,10.102 19.8,25.922 19.8,47.441 0,20.059 -6.75,34.797 -20.24,44.25 -13.49,9.43 -34.03,14.141 -61.6,14.141 l -64.36,0 z m 0,31.859 61.93,0 c 26.54,0 45.63,4.168 57.29,12.5 11.64,8.321 17.47,22.368 17.47,42.129 0,18.129 -6.49,31.219 -19.47,39.262 -12.97,8.027 -33.62,12.047 -61.93,12.047 l -55.29,0 0,-105.938 z m -37.6,138.457 91.35,0 c 42.9,0 73.94,-6.418 93.11,-19.25 19.17,-12.828 28.75,-33.097 28.75,-60.816 0,-19.172 -5.34,-34.992 -16.03,-47.441 -10.69,-12.469 -26.29,-20.532 -46.78,-24.219 l 0,-2.223 c 49.1,-8.398 73.65,-34.199 73.65,-77.41 0,-28.891 -9.77,-51.457 -29.3,-67.68 -19.54,-16.218 -46.86,-24.328 -81.95,-24.328 l -112.8,0 0,323.367"
         style="fill:#ef8729;fill-opacity:1;fill-rule:nonzero;stroke:none"
         id="path8610"
         inkscape:connector-curvature="0" /><path
         d="m 2632.25,439.031 37.6016,0 0,323.367 -37.6016,0 0,-323.367 z"
         style="fill:#ef8729;fill-opacity:1;fill-rule:nonzero;stroke:none"
         id="path8612"
         inkscape:connector-curvature="0" /><path
         d="m 2781.55,601.16 c 0,-43.801 9.32,-77.012 27.98,-99.648 18.65,-22.633 45.74,-33.953 81.28,-33.953 35.83,0 62.88,11.281 81.17,33.839 18.28,22.563 27.42,55.813 27.42,99.762 0,43.488 -9.1,76.488 -27.3,98.981 -18.22,22.48 -45.17,33.73 -80.85,33.73 -35.83,0 -63.07,-11.32 -81.72,-33.961 -18.66,-22.629 -27.98,-55.558 -27.98,-98.75 z m 257.67,0 c 0,-51.762 -13.09,-92.461 -39.26,-122.101 -26.17,-29.629 -62.56,-44.45 -109.15,-44.45 -47.63,0 -84.38,14.563 -110.26,43.68 -25.88,29.121 -38.82,70.223 -38.82,123.313 0,52.636 12.98,93.449 38.93,122.429 25.95,28.957 62.82,43.457 110.59,43.457 46.45,0 82.72,-14.75 108.83,-44.238 26.09,-29.488 39.14,-70.199 39.14,-122.09"
         style="fill:#ef8729;fill-opacity:1;fill-rule:nonzero;stroke:none"
         id="path8614"
         inkscape:connector-curvature="0" /><path
         d="m 3111.32,439.031 37.6094,0 0,323.367 -37.6094,0 0,-323.367 z"
         style="fill:#ef8729;fill-opacity:1;fill-rule:nonzero;stroke:none"
         id="path8616"
         inkscape:connector-curvature="0" /><path
         d="m 3490.2,439.031 -42.91,0 -176.72,271.379 -1.77,0 c 2.36,-31.84 3.54,-61.039 3.54,-87.578 l 0,-183.801 -34.73,0 0,323.367 42.47,0 176.29,-270.277 1.76,0 c -0.3,3.969 -0.96,16.77 -1.99,38.367 -1.03,21.602 -1.4,37.051 -1.1,46.34 l 0,185.57 35.16,0 0,-323.367"
         style="fill:#ef8729;fill-opacity:1;fill-rule:nonzero;stroke:none"
         id="path8618"
         inkscape:connector-curvature="0" /><path
         d="m 3616.73,439.031 -37.61,0 0,323.367 180.26,0 0,-33.398 -142.65,0 0,-118.328 134.03,0 0,-33.402 -134.03,0 0,-138.239"
         style="fill:#ef8729;fill-opacity:1;fill-rule:nonzero;stroke:none"
         id="path8620"
         inkscape:connector-curvature="0" /><path
         d="m 3835.91,601.16 c 0,-43.801 9.33,-77.012 27.98,-99.648 18.66,-22.633 45.75,-33.953 81.28,-33.953 35.84,0 62.89,11.281 81.17,33.839 18.29,22.563 27.43,55.813 27.43,99.762 0,43.488 -9.1,76.488 -27.31,98.981 -18.21,22.48 -45.17,33.73 -80.84,33.73 -35.83,0 -63.07,-11.32 -81.73,-33.961 -18.65,-22.629 -27.98,-55.558 -27.98,-98.75 z m 257.67,0 c 0,-51.762 -13.08,-92.461 -39.25,-122.101 -26.18,-29.629 -62.56,-44.45 -109.16,-44.45 -47.62,0 -84.38,14.563 -110.25,43.68 -25.88,29.121 -38.82,70.223 -38.82,123.313 0,52.636 12.98,93.449 38.93,122.429 25.95,28.957 62.81,43.457 110.59,43.457 46.45,0 82.72,-14.75 108.82,-44.238 26.1,-29.488 39.14,-70.199 39.14,-122.09"
         style="fill:#ef8729;fill-opacity:1;fill-rule:nonzero;stroke:none"
         id="path8622"
         inkscape:connector-curvature="0" /><path
         d="m 4203.29,605.801 51.53,0 c 26.55,0 46.01,5.269 58.39,15.82 12.39,10.527 18.58,26.348 18.58,47.438 0,21.382 -6.3,36.793 -18.91,46.23 -12.61,9.43 -32.84,14.152 -60.71,14.152 l -48.88,0 0,-123.64 z m 0,-32.289 0,-134.481 -37.61,0 0,323.367 88.7,0 c 39.66,0 68.97,-7.597 87.92,-22.789 18.94,-15.187 28.42,-38.027 28.42,-68.558 0,-42.77 -21.68,-71.66 -65.03,-86.699 l 87.82,-145.321 -44.47,0 -78.29,134.481 -67.46,0"
         style="fill:#ef8729;fill-opacity:1;fill-rule:nonzero;stroke:none"
         id="path8624"
         inkscape:connector-curvature="0" /><path
         d="m 4588.8,439.031 -109.7,286.649 -1.77,0 c 2.07,-22.711 3.1,-49.692 3.1,-80.95 l 0,-205.699 -34.73,0 0,323.367 56.62,0 102.41,-266.738 1.77,0 103.29,266.738 56.18,0 0,-323.367 -37.6,0 0,208.348 c 0,23.891 1.03,49.84 3.09,77.859 l -1.76,0 -110.59,-286.207 -30.31,0"
         style="fill:#ef8729;fill-opacity:1;fill-rule:nonzero;stroke:none"
         id="path8626"
         inkscape:connector-curvature="0" /><path
         d="m 5005.94,575.73 -37.6,100.18 c -4.86,12.692 -9.88,28.238 -15.04,46.68 -3.24,-14.16 -7.88,-29.719 -13.92,-46.68 l -38.05,-100.18 104.61,0 z m 51.98,-136.699 -40.25,102.848 -129.61,0 -39.81,-102.848 -38.05,0 127.85,324.699 31.62,0 127.18,-324.699 -38.93,0"
         style="fill:#ef8729;fill-opacity:1;fill-rule:nonzero;stroke:none"
         id="path8628"
         inkscape:connector-curvature="0" /><path
         d="m 5240.84,439.031 -37.6,0 0,289.969 -102.41,0 0,33.398 242.42,0 0,-33.398 -102.41,0 0,-289.969"
         style="fill:#ef8729;fill-opacity:1;fill-rule:nonzero;stroke:none"
         id="path8630"
         inkscape:connector-curvature="0" /><path
         d="m 5391.89,439.031 37.6094,0 0,323.367 -37.6094,0 0,-323.367 z"
         style="fill:#ef8729;fill-opacity:1;fill-rule:nonzero;stroke:none"
         id="path8632"
         inkscape:connector-curvature="0" /><path
         d="m 5656.65,733.422 c -35.53,0 -63.59,-11.832 -84.15,-35.5 -20.58,-23.672 -30.86,-56.07 -30.86,-97.203 0,-42.328 9.91,-75.02 29.74,-98.098 19.84,-23.07 48.12,-34.609 84.83,-34.609 22.56,0 48.29,4.047 77.19,12.16 l 0,-32.953 c -22.42,-8.41 -50.06,-12.61 -82.94,-12.61 -47.63,0 -84.38,14.45 -110.26,43.352 -25.88,28.898 -38.81,69.969 -38.81,123.199 0,33.309 6.23,62.512 18.69,87.59 12.46,25.059 30.44,44.371 53.96,57.941 23.52,13.559 51.2,20.348 83.06,20.348 33.9,0 63.55,-6.187 88.91,-18.578 l -15.93,-32.289 c -24.47,11.5 -48.96,17.25 -73.43,17.25"
         style="fill:#ef8729;fill-opacity:1;fill-rule:nonzero;stroke:none"
         id="path8634"
         inkscape:connector-curvature="0" /><path
         d="m 5986.43,525.07 c 0,-28.461 -10.31,-50.648 -30.96,-66.57 -20.64,-15.93 -48.66,-23.891 -84.05,-23.891 -38.34,0 -67.83,4.942 -88.47,14.821 l 0,36.269 c 13.27,-5.609 27.72,-10.027 43.35,-13.269 15.63,-3.25 31.11,-4.871 46.45,-4.871 25.06,0 43.93,4.761 56.62,14.273 12.68,9.508 19.02,22.75 19.02,39.699 0,11.211 -2.25,20.391 -6.75,27.539 -4.49,7.149 -12.01,13.75 -22.56,19.789 -10.54,6.051 -26.57,12.911 -48.1,20.582 -30.08,10.758 -51.58,23.508 -64.47,38.258 -12.91,14.742 -19.36,33.992 -19.36,57.731 0,24.922 9.37,44.75 28.09,59.5 18.73,14.742 43.5,22.109 74.32,22.109 32.14,0 61.71,-5.898 88.69,-17.699 l -11.73,-32.731 c -26.68,11.211 -52.63,16.813 -77.84,16.813 -19.91,0 -35.47,-4.281 -46.68,-12.832 -11.21,-8.551 -16.8,-20.418 -16.8,-35.61 0,-11.199 2.06,-20.39 6.19,-27.531 4.13,-7.148 11.09,-13.719 20.9,-19.687 9.8,-5.973 24.8,-12.571 45.01,-19.793 33.92,-12.098 57.25,-25.071 70.01,-38.93 12.75,-13.859 19.12,-31.859 19.12,-53.969"
         style="fill:#ef8729;fill-opacity:1;fill-rule:nonzero;stroke:none"
         id="path8636"
         inkscape:connector-curvature="0" /><path
         d="m 158.031,4.42188 37.5977,0 0,323.367 -37.5977,0 0,-323.367 z"
         style="fill:#ef8729;fill-opacity:1;fill-rule:nonzero;stroke:none"
         id="path8638"
         inkscape:connector-curvature="0" /><path
         d="m 536.906,4.42188 -42.906,0 -176.723,271.37912 -1.769,0 c 2.355,-31.84 3.543,-61.039 3.543,-87.582 l 0,-183.79712 -34.727,0 0,323.36712 42.465,0 176.277,-270.289 1.774,0 c -0.297,3.9805 -0.961,16.7813 -1.996,38.3789 -1.031,21.5901 -1.399,37.0511 -1.106,46.3321 l 0,185.578 35.168,0 0,-323.36712"
         style="fill:#ef8729;fill-opacity:1;fill-rule:nonzero;stroke:none"
         id="path8640"
         inkscape:connector-curvature="0" /><path
         d="m 663.422,4.42188 -37.598,0 0,323.36712 180.258,0 0,-33.41 -142.66,0 0,-118.328 134.035,0 0,-33.391 -134.035,0 0,-138.23812"
         style="fill:#ef8729;fill-opacity:1;fill-rule:nonzero;stroke:none"
         id="path8642"
         inkscape:connector-curvature="0" /><path
         d="m 897.211,171.191 51.535,0 c 26.543,0 46.008,5.27 58.394,15.809 12.38,10.539 18.57,26.352 18.57,47.441 0,21.379 -6.29,36.797 -18.9,46.231 -12.615,9.437 -32.849,14.16 -60.716,14.16 l -48.883,0 0,-123.641 z m 0,-32.293 0,-134.47612 -37.598,0 0,323.36712 88.692,0 c 39.664,0 68.965,-7.598 87.915,-22.789 18.95,-15.191 28.42,-38.039 28.42,-68.559 0,-42.769 -21.67,-71.671 -65.023,-86.711 l 87.803,-145.30812 -44.45,0 -78.302,134.47612 -67.457,0"
         style="fill:#ef8729;fill-opacity:1;fill-rule:nonzero;stroke:none"
         id="path8644"
         inkscape:connector-curvature="0" /><path
         d="m 1290.91,141.109 -37.6,100.192 c -4.87,12.691 -9.88,28.238 -15.04,46.668 -3.24,-14.149 -7.89,-29.719 -13.93,-46.668 l -38.05,-100.192 104.62,0 z m 51.98,-136.68712 -40.26,102.84012 -129.61,0 -39.81,-102.84012 -38.04,0 127.84,324.68712 31.63,0 127.18,-324.68712 -38.93,0"
         style="fill:#ef8729;fill-opacity:1;fill-rule:nonzero;stroke:none"
         id="path8646"
         inkscape:connector-curvature="0" /><path
         d="M 1608.74,90.4609 C 1608.74,62 1598.42,39.8086 1577.77,23.8789 1557.13,7.96094 1529.12,0 1493.73,0 c -38.34,0 -67.83,4.94141 -88.47,14.8203 l 0,36.2695 c 13.27,-5.6093 27.72,-10.0312 43.35,-13.2695 15.63,-3.25 31.11,-4.8711 46.44,-4.8711 25.07,0 43.95,4.75 56.63,14.2696 12.68,9.5117 19.02,22.7421 19.02,39.7031 0,11.207 -2.25,20.3791 -6.74,27.5391 -4.51,7.148 -12.03,13.75 -22.57,19.789 -10.54,6.051 -26.58,12.898 -48.1,20.57 -30.09,10.77 -51.58,23.512 -64.47,38.27 -12.91,14.738 -19.36,33.98 -19.36,57.719 0,24.921 9.36,44.75 28.09,59.511 18.72,14.739 43.5,22.11 74.31,22.11 32.15,0 61.71,-5.91 88.7,-17.7 L 1588.84,282 c -26.69,11.199 -52.65,16.809 -77.86,16.809 -19.9,0 -35.46,-4.278 -46.67,-12.829 -11.2,-8.55 -16.81,-20.429 -16.81,-35.609 0,-11.199 2.06,-20.391 6.2,-27.531 4.12,-7.16 11.09,-13.719 20.9,-19.692 9.8,-5.976 24.8,-12.566 45.01,-19.796 33.91,-12.09 57.24,-25.063 70,-38.922 12.75,-13.86 19.13,-31.86 19.13,-53.9691"
         style="fill:#ef8729;fill-opacity:1;fill-rule:nonzero;stroke:none"
         id="path8648"
         inkscape:connector-curvature="0" /><path
         d="m 1774.41,4.42188 -37.6,0 0,289.95712 -102.4,0 0,33.41 242.41,0 0,-33.41 -102.41,0 0,-289.95712"
         style="fill:#ef8729;fill-opacity:1;fill-rule:nonzero;stroke:none"
         id="path8650"
         inkscape:connector-curvature="0" /><path
         d="m 1963.07,171.191 51.54,0 c 26.54,0 46.01,5.27 58.39,15.809 12.39,10.539 18.58,26.352 18.58,47.441 0,21.379 -6.3,36.797 -18.91,46.231 -12.61,9.437 -32.85,14.16 -60.71,14.16 l -48.89,0 0,-123.641 z m 0,-32.293 0,-134.47612 -37.6,0 0,323.36712 88.7,0 c 39.66,0 68.96,-7.598 87.91,-22.789 18.95,-15.191 28.42,-38.039 28.42,-68.559 0,-42.769 -21.67,-71.671 -65.02,-86.711 l 87.81,-145.30812 -44.46,0 -78.3,134.47612 -67.46,0"
         style="fill:#ef8729;fill-opacity:1;fill-rule:nonzero;stroke:none"
         id="path8652"
         inkscape:connector-curvature="0" /><path
         d="m 2449.67,327.789 0,-209.25 c 0,-36.8593 -11.14,-65.8281 -33.4,-86.9179 C 2394.01,10.5391 2363.41,0 2324.48,0 c -38.92,0 -69.04,10.6094 -90.35,31.8516 -21.31,21.2304 -31.96,50.4297 -31.96,87.5894 l 0,208.348 37.6,0 0,-211.008 c 0,-26.9919 7.37,-47.7029 22.12,-62.1521 14.74,-14.457 36.42,-21.6797 65.02,-21.6797 27.28,0 48.3,7.2617 63.04,21.7891 14.74,14.5234 22.12,35.3515 22.12,62.4807 l 0,210.57 37.6,0"
         style="fill:#ef8729;fill-opacity:1;fill-rule:nonzero;stroke:none"
         id="path8654"
         inkscape:connector-curvature="0" /><path
         d="m 2673.73,298.809 c -35.54,0 -63.59,-11.84 -84.16,-35.5 -20.57,-23.668 -30.86,-56.071 -30.86,-97.207 0,-42.321 9.91,-75.02 29.75,-98.0903 19.83,-23.082 48.1,-34.6133 84.82,-34.6133 22.56,0 48.29,4.043 77.19,12.1602 l 0,-32.957 C 2728.06,4.19922 2700.41,0 2667.53,0 c -47.63,0 -84.38,14.4492 -110.25,43.3516 -25.89,28.8984 -38.82,69.9684 -38.82,123.1994 0,33.308 6.22,62.508 18.69,87.59 12.45,25.05 30.44,44.371 53.96,57.941 23.52,13.559 51.21,20.348 83.06,20.348 33.91,0 63.55,-6.192 88.91,-18.578 l -15.92,-32.293 c -24.48,11.492 -48.96,17.25 -73.43,17.25"
         style="fill:#ef8729;fill-opacity:1;fill-rule:nonzero;stroke:none"
         id="path8656"
         inkscape:connector-curvature="0" /><path
         d="m 2920.56,4.42188 -37.6,0 0,289.95712 -102.41,0 0,33.41 242.41,0 0,-33.41 -102.4,0 0,-289.95712"
         style="fill:#ef8729;fill-opacity:1;fill-rule:nonzero;stroke:none"
         id="path8658"
         inkscape:connector-curvature="0" /><path
         d="m 3315.8,327.789 0,-209.25 c 0,-36.8593 -11.13,-65.8281 -33.39,-86.9179 C 3260.14,10.5391 3229.55,0 3190.62,0 c -38.93,0 -69.05,10.6094 -90.35,31.8516 -21.31,21.2304 -31.96,50.4297 -31.96,87.5894 l 0,208.348 37.6,0 0,-211.008 c 0,-26.9919 7.37,-47.7029 22.12,-62.1521 14.74,-14.457 36.42,-21.6797 65.03,-21.6797 27.27,0 48.28,7.2617 63.03,21.7891 14.74,14.5234 22.12,35.3515 22.12,62.4807 l 0,210.57 37.59,0"
         style="fill:#ef8729;fill-opacity:1;fill-rule:nonzero;stroke:none"
         id="path8660"
         inkscape:connector-curvature="0" /><path
         d="m 3439.01,171.191 51.52,0 c 26.55,0 46.01,5.27 58.39,15.809 12.39,10.539 18.58,26.352 18.58,47.441 0,21.379 -6.3,36.797 -18.9,46.231 -12.61,9.437 -32.85,14.16 -60.72,14.16 l -48.87,0 0,-123.641 z m 0,-32.293 0,-134.47612 -37.61,0 0,323.36712 88.69,0 c 39.67,0 68.97,-7.598 87.92,-22.789 18.95,-15.191 28.42,-38.039 28.42,-68.559 0,-42.769 -21.67,-71.671 -65.03,-86.711 l 87.82,-145.30812 -44.46,0 -78.3,134.47612 -67.45,0"
         style="fill:#ef8729;fill-opacity:1;fill-rule:nonzero;stroke:none"
         id="path8662"
         inkscape:connector-curvature="0" /><path
         d="m 3861.67,4.42188 -180.26,0 0,323.36712 180.26,0 0,-33.41 -142.65,0 0,-104.168 134.03,0 0,-33.172 -134.03,0 0,-118.9999 142.65,0 0,-33.61722"
         style="fill:#ef8729;fill-opacity:1;fill-rule:nonzero;stroke:none"
         id="path8664"
         inkscape:connector-curvature="0" /><path
         d="M 4233.48,90.4609 C 4233.48,62 4223.16,39.8086 4202.52,23.8789 4181.87,7.96094 4153.86,0 4118.46,0 c -38.33,0 -67.82,4.94141 -88.47,14.8203 l 0,36.2695 c 13.28,-5.6093 27.73,-10.0312 43.36,-13.2695 15.63,-3.25 31.11,-4.8711 46.44,-4.8711 25.07,0 43.94,4.75 56.63,14.2696 12.68,9.5117 19.02,22.7421 19.02,39.7031 0,11.207 -2.26,20.3791 -6.75,27.5391 -4.49,7.148 -12.01,13.75 -22.56,19.789 -10.54,6.051 -26.58,12.898 -48.1,20.57 -30.08,10.77 -51.58,23.512 -64.48,38.27 -12.9,14.738 -19.35,33.98 -19.35,57.719 0,24.921 9.36,44.75 28.08,59.511 18.73,14.739 43.5,22.11 74.33,22.11 32.14,0 61.7,-5.91 88.69,-17.7 L 4213.57,282 c -26.69,11.199 -52.64,16.809 -77.85,16.809 -19.91,0 -35.46,-4.278 -46.67,-12.829 -11.21,-8.55 -16.81,-20.429 -16.81,-35.609 0,-11.199 2.07,-20.391 6.19,-27.531 4.13,-7.16 11.1,-13.719 20.91,-19.692 9.8,-5.976 24.8,-12.566 45.01,-19.796 33.91,-12.09 57.25,-25.063 70,-38.922 12.75,-13.86 19.13,-31.86 19.13,-53.9691"
         style="fill:#ef8729;fill-opacity:1;fill-rule:nonzero;stroke:none"
         id="path8666"
         inkscape:connector-curvature="0" /><path
         d="m 4581.83,4.42188 -37.15,0 -65.24,216.52712 c -3.11,9.59 -6.57,21.68 -10.4,36.281 -3.84,14.59 -5.83,23.36 -5.97,26.321 -3.25,-19.461 -8.41,-40.77 -15.49,-63.93 l -63.25,-215.19912 -37.16,0 -86.04,323.36712 39.81,0 51.09,-199.73 c 7.08,-28.02 12.24,-53.3793 15.48,-76.0785 3.98,26.9804 9.89,53.3715 17.7,79.1675 l 57.95,196.641 39.81,0 60.82,-198.398 c 7.08,-22.86 13.06,-48.6605 17.92,-77.4105 2.8,20.9297 8.11,46.4492 15.93,76.5195 l 50.87,199.289 39.81,0 -86.49,-323.36712"
         style="fill:#ef8729;fill-opacity:1;fill-rule:nonzero;stroke:none"
         id="path8668"
         inkscape:connector-curvature="0" /><path
         d="m 4899.23,4.42188 -180.27,0 0,323.36712 180.27,0 0,-33.41 -142.66,0 0,-104.168 134.04,0 0,-33.172 -134.04,0 0,-118.9999 142.66,0 0,-33.61722"
         style="fill:#ef8729;fill-opacity:1;fill-rule:nonzero;stroke:none"
         id="path8670"
         inkscape:connector-curvature="0" /><path
         d="m 5189.19,167.871 c 0,42.168 -10.58,73.938 -31.73,95.328 -21.17,21.383 -52.61,32.071 -94.34,32.071 l -54.63,0 0,-258.3403 45.78,0 c 44.82,0 78.52,11.0195 101.08,33.0703 22.56,22.0391 33.84,54.66 33.84,97.871 z m 39.81,1.328 C 5229,115.82 5214.52,75.0117 5185.54,46.7813 5156.56,18.5391 5114.88,4.42188 5060.46,4.42188 l -89.58,0 0,323.36712 99.1,0 c 50.27,0 89.35,-13.937 117.22,-41.809 27.86,-27.871 41.8,-66.789 41.8,-116.781"
         style="fill:#ef8729;fill-opacity:1;fill-rule:nonzero;stroke:none"
         id="path8672"
         inkscape:connector-curvature="0" /><path
         d="m 5481.37,4.42188 -180.27,0 0,323.36712 180.27,0 0,-33.41 -142.66,0 0,-104.168 134.04,0 0,-33.172 -134.04,0 0,-118.9999 142.66,0 0,-33.61722"
         style="fill:#ef8729;fill-opacity:1;fill-rule:nonzero;stroke:none"
         id="path8674"
         inkscape:connector-curvature="0" /><path
         d="m 5805.63,4.42188 -42.92,0 -176.72,271.37912 -1.77,0 c 2.36,-31.84 3.54,-61.039 3.54,-87.582 l 0,-183.79712 -34.73,0 0,323.36712 42.47,0 176.29,-270.289 1.76,0 c -0.3,3.9805 -0.96,16.7813 -1.99,38.3789 -1.03,21.5901 -1.4,37.0511 -1.1,46.3321 l 0,185.578 35.17,0 0,-323.36712"
         style="fill:#ef8729;fill-opacity:1;fill-rule:nonzero;stroke:none"
         id="path8676"
         inkscape:connector-curvature="0" /></g></g></svg>